<svg xmlns="http://www.w3.org/2000/svg" width="22" height="24" viewBox="0 0 22 24">
  <metadata><?xpacket begin="﻿" id="W5M0MpCehiHzreSzNTczkc9d"?>
<x:xmpmeta xmlns:x="adobe:ns:meta/" x:xmptk="Adobe XMP Core 5.6-c142 79.160924, 2017/07/13-01:06:39        ">
   <rdf:RDF xmlns:rdf="http://www.w3.org/1999/02/22-rdf-syntax-ns#">
      <rdf:Description rdf:about=""
            xmlns:xmp="http://ns.adobe.com/xap/1.0/">
         <xmp:CreatorTool>Adobe Photoshop CC (Windows)</xmp:CreatorTool>
      </rdf:Description>
   </rdf:RDF>
</x:xmpmeta>
                                                                                                    
                                                                                                    
                                                                                                    
                                                                                                    
                                                                                                    
                                                                                                    
                                                                                                    
                                                                                                    
                                                                                                    
                                                                                                    
                                                                                                    
                                                                                                    
                                                                                                    
                                                                                                    
                                                                                                    
                                                                                                    
                                                                                                    
                                                                                                    
                                                                                                    
                                                                                                    
                           
<?xpacket end="w"?></metadata>
<defs>
    <style>
      .cls-1 {
        fill-rule: evenodd;
      }
    </style>
  </defs>
  <path id="Forma_1" data-name="Forma 1" class="cls-1" d="M1805.55,301.181h3.85v3.274a0.531,0.531,0,0,0,.15.391,0.563,0.563,0,0,0,.4.155h2.87a0.556,0.556,0,0,0,.39-0.155,0.5,0.5,0,0,0,.16-0.391v-3.274h8.68a0.553,0.553,0,0,0,.4-0.153,0.539,0.539,0,0,0,.15-0.392v-2.182a0.536,0.536,0,0,0-.15-0.391,0.558,0.558,0,0,0-.4-0.154h-8.68V295.9h5.84a7.785,7.785,0,0,0,5.62-2.079,7.727,7.727,0,0,0,0-10.738,7.794,7.794,0,0,0-5.62-2.08h-9.26a0.561,0.561,0,0,0-.4.153,0.54,0.54,0,0,0-.15.392v10.722h-3.85a0.533,0.533,0,0,0-.55.546v2.54a0.535,0.535,0,0,0,.15.391,0.557,0.557,0,0,0,.4.153h3.85v2.012h-3.85a0.558,0.558,0,0,0-.4.154,0.535,0.535,0,0,0-.15.391v2.182a0.539,0.539,0,0,0,.15.392A0.553,0.553,0,0,0,1805.55,301.181Zm7.82-16.549h5.5a4.117,4.117,0,0,1,2.94,1.056,3.963,3.963,0,0,1,0,5.522,4.118,4.118,0,0,1-2.94,1.057h-5.5v-7.635Z" transform="translate(-1805 -281)"/>
</svg>
